<svg height="173" viewBox="0 0 438 173" width="438" xmlns="http://www.w3.org/2000/svg" xmlns:xlink="http://www.w3.org/1999/xlink"><mask id="a" fill="#fff"><path d="m0 .7184h437.451v171.594h-437.451z" fill="#fff" fill-rule="evenodd"/></mask><mask id="b" fill="#fff"><path d="m0 173.282h437.451v-172.282h-437.451z" fill="#fff" fill-rule="evenodd"/></mask><g fill="none" fill-rule="evenodd" transform="translate(0 -1)"><path d="m375.936 43.3814h-44.644c-10.088 0-18.268 8.02-18.268 17.913 0 9.842 8.096 17.843 18.133 17.916l85.072.616c11.746.084 21.222 9.446 21.222 20.965 0 11.578-9.572 20.964-21.38 20.964h-33.177c-20.273 0-36.707 16.115-36.707 35.996v14.561l-244.724-.933c0-18.695-15.456-33.852-34.522-33.852h-43.456c-12.97 0-23.486-10.311-23.486-23.031 0-12.717 10.516-23.028 23.486-23.028h72.799c11.954 0 21.645-9.504 21.645-21.225 0-11.722-9.691-21.226-21.645-21.226h-34.397c-13.602 0-24.627-10.811-24.627-24.15 0-13.336 11.025-24.149 24.627-24.149h314.049c12.014 0 21.753 9.551 21.753 21.331 0 11.781-9.739 21.332-21.753 21.332" fill="#f0f5ff" mask="url(#a)" transform="translate(0 .282)"/><g fill="#0053cc"><path d="m367.2554 85.3528c-.562 0-1.018-.582-1.018-1.299v-7.584c0-.718.456-1.3 1.018-1.3s1.018.582 1.018 1.3v7.584c0 .717-.456 1.299-1.018 1.299"/><path d="m372.3472 80.2615c0 .562-.583 1.018-1.3 1.018h-7.584c-.717 0-1.3-.456-1.3-1.018s.583-1.017 1.3-1.017h7.584c.717 0 1.3.455 1.3 1.017"/><path d="m117.6743 173.282c-.842 0-1.525-.683-1.525-1.527s.683-1.528 1.525-1.528c.843 0 1.526.684 1.526 1.528s-.683 1.527-1.526 1.527"/><path d="m295.6743 43.282c-.842 0-1.525-.683-1.525-1.527s.683-1.528 1.525-1.528c.843 0 1.526.684 1.526 1.528s-.683 1.527-1.526 1.527"/><path d="m109.9819 62.2127c-.425.386-.459 1.047-.077 1.472l3.935 4.406c.193.213.447.329.713.343.265.014.533-.075.744-.267.424-.387.458-1.044.077-1.472l-3.936-4.407c-.19-.211-.448-.327-.713-.341-.263-.013-.532.076-.743.266"/><path d="m115.2974 62.2127c.424.386.458 1.047.076 1.472l-3.935 4.406c-.193.213-.447.329-.713.343-.265.014-.532-.075-.744-.267-.424-.387-.458-1.044-.077-1.472l3.936-4.407c.19-.211.448-.327.713-.341.263-.013.532.076.744.266"/><path d="m45.5034 47.8049h53.107c.505 0 .914.409.914.914v.208c0 .505-.409.914-.914.914h-53.107c-.505 0-.914-.409-.914-.914v-.208c0-.505.409-.914.914-.914"/><path d="m132.8003 13.9856h31.107c.505 0 .914.41.914.915v.208c0 .504-.409.914-.914.914h-31.107c-.505 0-.914-.41-.914-.914v-.208c0-.505.409-.915.914-.915"/></g><path d="m292.6812 164.0154h-147.337v-89.486c0-3.596 2.915-6.51-3.49-6.51h134.318c13.595 0 16.509 2.914 16.509 6.51z" fill="#b0d0ff"/><path d="m150.1694 159.1912v-84.662c0-.929.755-1.685 1.685-1.685h134.318c.929 0 1.684.756 1.684 1.685v84.662z" fill="#fff"/><path d="m243.0493 156.6639v5.881h-48.318v-5.881h-59.712v8.822c-.167 3.077 2.301 5.704 3.8 5.881h156.697c4.944-.177 7.412-2.804 7.246-5.881v-8.822z" fill="#5fa0ff"/><path d="m249.8706 68.929h6.478c.862 0 1.561-.699 1.561-1.562s-.699-1.563-1.561-1.563h-6.478c-.863 0-1.562.7-1.562 1.563s.699 1.562 1.562 1.562" fill="#0053cc"/><path d="m286.3599 65.8045h-4.201c-.862 0-1.563.7-1.563 1.562 0 .863.701 1.563 1.563 1.563h4.202c2.378.003 4.314 1.939 4.317 4.318v81.855h-48.427c-.864 0-1.563.699-1.563 1.561v4.32h-43.925v-4.32c0-.862-.699-1.561-1.561-1.561h-48.429v-15.994c0-.779-.53-1.502-1.298-1.628-.977-.161-1.826.593-1.826 1.54v17.643c0 .863.699 1.563 1.563 1.563h48.427v4.319c0 .863.7 1.562 1.562 1.562h47.05c.862 0 1.562-.699 1.562-1.562v-4.319h48.428c.863 0 1.562-.699 1.562-1.562v-83.415c-.005-4.101-3.344-7.441-7.443-7.445" fill="#0053cc"/><path d="m145.4751 117.0364c.768-.126 1.298-.85 1.298-1.628v-42.163c.003-2.376 1.94-4.313 4.319-4.316h67.558c.863 0 1.562-.7 1.562-1.562 0-.863-.699-1.563-1.562-1.563h-67.556c-4.101.004-7.441 3.344-7.445 7.443v42.248c0 .949.848 1.702 1.826 1.541" fill="#0053cc"/><path d="m135.0103 165.4861c.004 2.379 1.94 4.315 4.317 4.318h158.794c2.38-.003 4.316-1.939 4.32-4.317v-7.261h-58.628v4.319c0 .861-.701 1.562-1.563 1.562h-47.05c-.861 0-1.562-.701-1.562-1.562v-4.319h-58.628zm4.319 7.443c-4.099-.005-7.438-3.344-7.443-7.444v-8.821c0-.862.7-1.562 1.562-1.562h61.752c.862 0 1.563.7 1.563 1.562v4.319h43.925v-4.319c0-.862.701-1.562 1.562-1.562h61.752c.862 0 1.563.7 1.563 1.562v8.822c-.004 4.099-3.344 7.438-7.445 7.443h.001z" fill="#0053cc"/><path d="m231.2427 88.2971c0-6.125-4.504-11.196-10.379-12.088-.07-.011-.141-.019-.21-.029-.124-.016-.247-.033-.372-.046-.107-.011-.216-.019-.324-.027-.098-.007-.195-.016-.293-.021-.021-.001-.041-.004-.061-.005-.086-.004-.17-.003-.255-.005-.112-.003-.223-.007-.335-.007-.114 0-.225.004-.337.007-.085.002-.169.001-.254.005-.021.001-.04.004-.061.005-.098.005-.196.014-.294.021-.108.008-.217.016-.324.027-.124.013-.248.03-.371.046-.07.01-.141.018-.21.029-5.876.892-10.379 5.963-10.379 12.088 0 .037.004.074.005.111-.001.078-.005.156-.005.234v6.177h4.892v-6.271c0-3.54 2.419-6.673 5.771-7.419.004-.001.008-.002.012-.003.086-.019.173-.035.261-.051.047-.008.095-.017.144-.025.059-.009.118-.018.178-.025.07-.01.139-.018.21-.025.053-.006.105-.011.158-.015.069-.005.139-.01.208-.014.066-.003.133-.006.199-.007.066-.002.131-.003.197-.003.065 0 .13.001.196.003.065.001.132.004.198.007.069.004.14.009.209.014.053.004.105.009.158.015.07.007.14.015.209.025.06.007.119.016.178.025.049.008.097.017.145.025.087.016.174.032.261.051.004.001.007.002.011.003 3.353.746 5.772 3.879 5.772 7.419v6.271h4.892v-6.177c0-.078-.004-.156-.006-.234.002-.037.006-.074.006-.111" fill="#5fa0ff"/><path d="m230.1021 93.6775h-2.609v-1.513l-.005-4.092c-.104-3.945-2.913-7.226-6.637-8.052-.024-.006-.05-.012-.074-.017-.072-.016-.147-.029-.22-.043-.073-.013-.146-.027-.22-.039-.043-.007-.087-.012-.13-.018-.099-.015-.199-.028-.3-.039-.034-.003-.07-.006-.104-.009-.076-.007-.151-.016-.228-.021-.024-.001-.047-.001-.071-.002-.163-.009-.326-.015-.491-.015s-.329.006-.492.015c-.023.001-.047.001-.07.002-.077.005-.153.014-.228.021-.035.003-.069.006-.104.009-.101.011-.201.024-.301.039-.043.006-.086.011-.129.018-.074.012-.148.026-.221.039-.073.014-.146.027-.22.043-.024.005-.048.011-.073.017-3.793.842-6.638 4.229-6.641 8.27v2.271 3.116h-2.611v-3.116l.012-2.313c.176-5.369 3.907-9.811 8.894-10.822.077-.016.155-.028.233-.042.096-.018.191-.036.288-.051.13-.019.262-.034.394-.05.049-.005.098-.013.149-.018.135-.014.271-.023.407-.031.052-.003.103-.009.155-.012.185-.008.371-.014.558-.014s.373.006.558.014c.052.003.103.009.155.012.136.008.272.017.407.031.05.005.1.013.15.018.131.016.262.031.392.05.098.015.193.033.288.051.078.014.158.026.235.042 4.931 1 8.634 5.356 8.885 10.646 0 0 .011.327.011.334v1.961c.003-.002.006-.003.008-.005zm1.141-5.38c0-6.343-4.83-11.558-11.013-12.17-.074-.007-.15-.011-.226-.017-.129-.01-.257-.022-.387-.028-.004 0-.009-.001-.013-.001-.198-.009-.396-.014-.591-.014-.196 0-.393.005-.591.014-.005 0-.008.001-.013.001-.13.006-.258.018-.387.028-.076.006-.151.01-.227.017-6.181.612-11.011 5.827-11.011 12.17 0 .037.004.073.005.11-.001.079-.005.156-.005.235v6.177h4.891v-6.271c0-3.637 2.554-6.843 6.05-7.475.038-.006.077-.014.115-.02.062-.01.123-.018.186-.026.063-.009.128-.018.192-.025.053-.006.107-.01.159-.014.066-.006.13-.011.195-.015.148-.009.296-.014.441-.014s.293.005.441.014c.065.004.129.009.194.015.054.004.107.008.16.014.065.007.128.016.192.025.062.008.124.016.185.026.039.006.077.014.116.02 3.496.632 6.05 3.838 6.05 7.475v6.271h4.892v-6.177c0-.079-.004-.156-.006-.235.002-.037.006-.073.006-.11z" fill="#0053cc"/><path d="m227.1665 116.0174h-16.307c-4.504 0-8.153-3.649-8.153-8.153v-11.414c0-1.801 1.46-3.262 3.262-3.262h26.09c1.8 0 3.26 1.461 3.26 3.262v11.414c0 4.504-3.649 8.153-8.152 8.153" fill="#b3d1ff"/><path d="m203.522 102.564h30.981v-5.299h-30.981z" fill="#4d93ff" mask="url(#b)"/><path d="m203.522 98.08h30.981v-.815h-30.981z" fill="#fff" mask="url(#b)"/><path d="m220.6431 107.0491c0-.901-.729-1.63-1.63-1.63s-1.631.729-1.631 1.63c0 .532.26 1 .654 1.298l-.654 3.594h3.261l-.652-3.594c.393-.298.652-.766.652-1.298" fill="#fcfdff" mask="url(#b)"/><path d="m232.0581 93.1887h-26.09c-1.802 0-3.262 1.46-3.262 3.261v11.415c0 4.503 3.65 8.153 8.154 8.153h16.306c4.503 0 8.153-3.65 8.153-8.153v-11.415c0-1.801-1.46-3.261-3.261-3.261m0 1.142c1.169 0 2.119.95 2.119 2.119v11.415c0 3.866-3.144 7.011-7.011 7.011h-16.306c-3.866 0-7.012-3.145-7.012-7.011v-11.415c0-1.169.951-2.119 2.12-2.119z" fill="#0053cc" mask="url(#b)"/><path d="m219.0132 105.4187c-.901 0-1.631.729-1.631 1.63 0 .532.26 1 .653 1.298l-.653 3.594h3.261l-.652-3.594c.393-.298.652-.766.652-1.298 0-.901-.729-1.63-1.63-1.63m0 .285c.742 0 1.346.603 1.346 1.345 0 .422-.199.811-.54 1.071-.086.065-.129.173-.111.278l.593 3.258h-2.576l.591-3.258c.02-.105-.023-.213-.109-.278-.342-.26-.54-.649-.54-1.071 0-.742.604-1.345 1.346-1.345m15.49-2.731h-30.981c-.225 0-.407-.183-.407-.408 0-.224.182-.407.407-.407h30.981c.225 0 .408.183.408.407 0 .225-.183.408-.408.408m-9.376-4.892h-21.605c-.225 0-.407-.183-.407-.408 0-.224.182-.407.407-.407h21.605c.225 0 .408.183.408.407 0 .225-.183.408-.408.408m4.077 0h-1.63c-.225 0-.408-.183-.408-.408 0-.224.183-.407.408-.407h1.63c.225 0 .408.183.408.407 0 .225-.183.408-.408.408m5.299 0h-2.853c-.225 0-.408-.183-.408-.408 0-.224.183-.407.408-.407h2.853c.225 0 .408.183.408.407 0 .225-.183.408-.408.408" fill="#0053cc" mask="url(#b)"/><path d="m252.3052 139.2859h-66.584c-4.784 0-8.663-3.878-8.663-8.663 0-4.784 3.879-8.663 8.663-8.663h66.584c4.784 0 8.662 3.879 8.662 8.663 0 4.785-3.878 8.663-8.662 8.663" fill="#e1edff" mask="url(#b)"/><path d="m252.3052 139.2859h-66.584c-4.784 0-8.663-3.878-8.663-8.663 0-4.784 3.879-8.663 8.663-8.663h66.584c4.784 0 8.662 3.879 8.662 8.663 0 4.785-3.878 8.663-8.662 8.663z" mask="url(#b)" stroke="#0053cc" stroke-width="1.723"/><g fill="#0053cc"><path d="m189.0718 128.7405-1.269 1.669v.027l2.017-.267v.907l-2.017-.24v.028l1.283 1.601-.842.481-.801-1.87h-.027l-.867 1.883-.761-.48 1.267-1.63v-.026l-1.975.253v-.907l1.963.253v-.026l-1.255-1.63.814-.466.827 1.856h.028l.813-1.87z" mask="url(#b)"/><path d="m194.6157 128.7405-1.269 1.669v.027l2.017-.267v.907l-2.017-.24v.028l1.283 1.601-.842.481-.801-1.87h-.026l-.868 1.883-.761-.48 1.267-1.63v-.026l-1.975.253v-.907l1.963.253v-.026l-1.255-1.63.814-.466.827 1.856h.028l.814-1.87z" mask="url(#b)"/><path d="m200.1597 128.7405-1.268 1.669v.027l2.016-.267v.907l-2.016-.24v.028l1.282 1.601-.842.481-.801-1.87h-.026l-.868 1.883-.761-.48 1.268-1.63v-.026l-1.976.253v-.907l1.963.253v-.026l-1.255-1.63.814-.466.828 1.856h.027l.814-1.87z" mask="url(#b)"/><path d="m205.7036 128.7405-1.268 1.669v.027l2.016-.267v.907l-2.016-.24v.028l1.282 1.601-.841.481-.802-1.87h-.026l-.868 1.883-.761-.48 1.268-1.63v-.026l-1.976.253v-.907l1.963.253v-.026l-1.255-1.63.814-.466.828 1.856h.027l.814-1.87z" mask="url(#b)"/><path d="m90.1528 170.7361h23.107c.505 0 .914.41.914.914v.209c0 .504-.409.914-.914.914h-23.107c-.505 0-.914-.41-.914-.914v-.209c0-.504.409-.914.914-.914" mask="url(#b)"/><path d="m335.3091 170.7361h33.107c.505 0 .914.41.914.914v.209c0 .504-.409.914-.914.914h-33.107c-.505 0-.914-.41-.914-.914v-.209c0-.504.409-.914.914-.914" mask="url(#b)"/><path d="m324.3091 79.2434h33.107c.505 0 .914.409.914.914v.209c0 .504-.409.914-.914.914h-33.107c-.505 0-.914-.41-.914-.914v-.209c0-.505.409-.914.914-.914" mask="url(#b)"/><path d="m318.3091 170.8225h12.107c.505 0 .914.409.914.914v.208c0 .505-.409.914-.914.914h-12.107c-.505 0-.914-.409-.914-.914v-.208c0-.505.409-.914.914-.914" mask="url(#b)"/><path d="m145.3442 124.1668c-.842 0-1.525-.683-1.525-1.527 0-.843.683-1.528 1.525-1.528.843 0 1.526.685 1.526 1.528 0 .844-.683 1.527-1.526 1.527" mask="url(#b)"/><path d="m262.6802 7.4793c-.115.711.366 1.387 1.073 1.506l7.303 1.26c.354.06.694-.024.967-.218.27-.193.465-.489.522-.843.116-.711-.363-1.383-1.072-1.506l-7.303-1.26c-.351-.059-.695.027-.966.22-.268.192-.464.489-.524.841" mask="url(#b)"/><path d="m267.9028 3.3347c.719.048 1.268.671 1.223 1.387l-.431 7.398c-.022.359-.182.671-.433.892-.249.219-.581.342-.939.317-.718-.048-1.265-.667-1.223-1.387l.431-7.398c.022-.355.185-.67.435-.89.247-.218.581-.341.937-.319" mask="url(#b)"/><path d="m127.062 15.3553c0 .747-.604 1.351-1.351 1.351-.746 0-1.351-.604-1.351-1.351 0-.746.605-1.351 1.351-1.351.747 0 1.351.605 1.351 1.351" mask="url(#b)"/><path d="m184.0298 48.1287c0 .552-.447 1-1 1s-1-.448-1-1 .447-1 1-1 1 .448 1 1" mask="url(#b)"/><path d="m337.1841 135.5462c.707-.137 1.176-.823 1.043-1.527l-1.341-7.288c-.067-.354-.263-.643-.54-.832-.274-.187-.619-.267-.971-.199-.707.137-1.172.819-1.043 1.527l1.341 7.288c.067.351.267.643.541.83.273.186.619.267.97.201" mask="url(#b)"/><path d="m331.4907 132.0779c-.203-.691.191-1.421.878-1.626l7.092-2.153c.344-.103.691-.061.986.098.292.158.522.428.623.771.202.691-.19 1.418-.879 1.627l-7.091 2.153c-.341.102-.693.058-.986-.1-.29-.157-.521-.428-.623-.77" mask="url(#b)"/><path d="m79.0649 113.5442c-.441 0-.799-.458-.799-1.021v-5.958c0-.564.358-1.021.799-1.021s.8.457.8 1.021v5.958c0 .563-.359 1.021-.8 1.021" mask="url(#b)"/><path d="m83.0649 109.5442c0 .441-.457.799-1.021.799h-5.958c-.563 0-1.021-.358-1.021-.799s.458-.799 1.021-.799h5.958c.564 0 1.021.358 1.021.799" mask="url(#b)"/><path d="m250.7329 52.0198c0 8.29-6.721 15.01-15.01 15.01-8.29 0-15.011-6.72-15.011-15.01s6.721-15.01 15.011-15.01c8.289 0 15.01 6.72 15.01 15.01" mask="url(#b)"/></g><path d="m248.6235 52.0198c0 7.125-5.776 12.9-12.9 12.9-7.125 0-12.902-5.775-12.902-12.9s5.777-12.901 12.902-12.901c7.124 0 12.9 5.776 12.9 12.901" fill="#b0d0ff" mask="url(#b)"/><path d="m246.8247 52.0198c0 6.131-4.971 11.102-11.102 11.102s-11.102-4.971-11.102-11.102c0-6.132 4.971-11.103 11.102-11.103s11.102 4.971 11.102 11.103" fill="#fff" mask="url(#b)"/><path d="m228.1313 64.4216 7.854 7.616 6.591-7.117-7.12.884z" fill="#0053cc" mask="url(#b)"/><path d="m234.1919 55.781-.064-.745c-.076-.855.005-1.577.242-2.169.211-.526.589-1.083 1.135-1.669l.213-.221c.788-.804 1.287-1.419 1.499-1.845.211-.425.293-.917.245-1.476-.058-.652-.302-1.136-.733-1.45-.432-.314-1.022-.439-1.774-.373-.68.059-1.3.219-1.862.48-.56.26-1.104.562-1.629.905l-1.081-1.971c1.376-1.004 2.894-1.579 4.554-1.724 1.402-.123 2.547.153 3.436.826.887.673 1.388 1.666 1.504 2.978.05.582.017 1.107-.101 1.576-.117.467-.317.921-.6 1.36-.254.396-.686.908-1.296 1.538l-.21.214c-.617.625-1.021 1.134-1.213 1.526-.193.392-.262.903-.207 1.532l.046.524zm-.274 3.26c-.093-1.066.372-1.643 1.395-1.732.501-.044.897.062 1.185.317.289.256.456.637.5 1.145.044.501-.055.909-.298 1.225-.242.317-.611.496-1.105.539-.494.044-.885-.066-1.175-.328-.29-.263-.457-.652-.502-1.166z" fill="#0053cc" mask="url(#b)"/><path d="m278.5601 66.3494c-1.119 5.209-6.25 8.524-11.459 7.405-5.209-1.12-8.524-6.25-7.405-11.459 1.12-5.21 6.25-8.525 11.46-7.405 5.209 1.119 8.524 6.25 7.404 11.459" fill="#0053cc" mask="url(#b)"/><path d="m277.2349 66.0642c-.962 4.477-5.372 7.327-9.849 6.364-4.477-.962-7.326-5.371-6.364-9.848s5.371-7.327 9.849-6.365c4.476.963 7.326 5.372 6.364 9.849" fill="#b0d0ff" mask="url(#b)"/><path d="m276.105 65.8216c-.828 3.853-4.623 6.305-8.476 5.477s-6.305-4.623-5.477-8.476 4.623-6.305 8.475-5.477c3.854.828 6.306 4.623 5.478 8.476" fill="#fff" mask="url(#b)"/><path d="m263.0083 71.8342 3.582 5.103 5.103-3.583z" fill="#0053cc" mask="url(#b)"/><path d="m269.3345 66.2288-1.019-.143.573-6.286 1.622.228zm-1.572 1.589c.04-.289.141-.498.304-.628.164-.13.376-.177.638-.14.259.036.446.142.563.318.116.175.155.401.116.678s-.14.486-.303.628-.372.196-.626.16c-.259-.037-.449-.143-.571-.319-.121-.176-.162-.409-.121-.697z" fill="#0053cc" mask="url(#b)"/><path d="m316.2017 117.2473c0 .552-.447 1-1 1-.552 0-1-.448-1-1s.448-1 1-1c.553 0 1 .448 1 1" fill="#0053cc" mask="url(#b)"/><path d="m116.2017 112.2473c0 .552-.447 1-1 1-.552 0-1-.448-1-1s.448-1 1-1c.553 0 1 .448 1 1" fill="#0053cc" mask="url(#b)"/><path d="m208.2446 26.594c-.276 0-.5-.286-.5-.638v-3.724c0-.352.224-.638.5-.638.275 0 .499.286.499.638v3.724c0 .352-.224.638-.499.638" fill="#0053cc" mask="url(#b)"/><path d="m210.7446 24.094c0 .276-.286.5-.639.5h-3.723c-.352 0-.638-.224-.638-.5s.286-.5.638-.5h3.723c.353 0 .639.224.639.5" fill="#0053cc" mask="url(#b)"/></g></svg>