<svg height="173" viewBox="0 0 438 173" width="438" xmlns="http://www.w3.org/2000/svg" xmlns:xlink="http://www.w3.org/1999/xlink"><mask id="a" fill="#fff"><path d="m0 .7181h437.451v171.594h-437.451z" fill="#fff" fill-rule="evenodd"/></mask><mask id="b" fill="#fff"><path d="m.1493.9452h3.051v3.0548h-3.051z" fill="#fff" fill-rule="evenodd"/></mask><mask id="c" fill="#fff"><path d="m0 173.282h437.451v-172.282h-437.451z" fill="#fff" fill-rule="evenodd"/></mask><g fill="none" fill-rule="evenodd" transform="translate(0 -1)"><path d="m375.936 43.3811h-44.644c-10.088 0-18.268 8.02-18.268 17.913 0 9.843 8.096 17.843 18.133 17.916l85.072.616c11.746.084 21.222 9.447 21.222 20.965 0 11.578-9.572 20.964-21.38 20.964h-33.177c-20.273 0-36.707 16.115-36.707 35.996v14.561l-244.724-.933c0-18.694-15.456-33.852-34.522-33.852h-43.456c-12.97 0-23.486-10.31-23.486-23.031 0-12.717 10.516-23.027 23.486-23.027h72.799c11.954 0 21.645-9.505 21.645-21.226 0-11.722-9.691-21.226-21.645-21.226h-34.397c-13.602 0-24.627-10.811-24.627-24.15 0-13.336 11.025-24.149 24.627-24.149h314.049c12.014 0 21.753 9.552 21.753 21.332s-9.739 21.331-21.753 21.331" fill="#f0f5ff" mask="url(#a)" transform="translate(0 .282)"/><g fill="#0053cc"><path d="m367.2554 85.3535c-.562 0-1.018-.583-1.018-1.3v-7.584c0-.717.456-1.3 1.018-1.3s1.018.583 1.018 1.3v7.584c0 .717-.456 1.3-1.018 1.3"/><path d="m372.3472 80.2617c0 .562-.583 1.018-1.3 1.018h-7.584c-.717 0-1.3-.456-1.3-1.018s.583-1.018 1.3-1.018h7.584c.717 0 1.3.456 1.3 1.018"/><path d="m1.6743 4.0002c-.842 0-1.525-.684-1.525-1.527s.683-1.528 1.525-1.528c.843 0 1.526.685 1.526 1.528s-.683 1.527-1.526 1.527" mask="url(#b)" transform="translate(116 169.282)"/><path d="m300.6743 40.2822c-.842 0-1.525-.684-1.525-1.527s.683-1.528 1.525-1.528c.843 0 1.526.685 1.526 1.528s-.683 1.527-1.526 1.527"/><path d="m109.9819 62.2129c-.425.386-.459 1.047-.077 1.472l3.935 4.406c.193.213.447.329.713.343.265.013.533-.075.744-.268.424-.386.458-1.043.077-1.472l-3.936-4.406c-.19-.211-.448-.327-.713-.341-.263-.013-.532.076-.743.266"/><path d="m115.2974 62.2129c.424.386.458 1.047.076 1.472l-3.935 4.406c-.193.213-.447.329-.713.343-.265.013-.532-.075-.744-.268-.424-.386-.458-1.043-.077-1.472l3.936-4.406c.19-.211.448-.327.713-.341.263-.013.532.076.744.266"/><path d="m45.5034 47.8047h53.107c.505 0 .914.409.914.914v.208c0 .505-.409.914-.914.914h-53.107c-.505 0-.914-.409-.914-.914v-.208c0-.505.409-.914.914-.914"/><path d="m132.8003 13.9863h31.107c.505 0 .914.409.914.914v.208c0 .505-.409.914-.914.914h-31.107c-.505 0-.914-.409-.914-.914v-.208c0-.505.409-.914.914-.914"/><path d="m90.1528 170.7363h23.107c.505 0 .914.409.914.914v.208c0 .505-.409.914-.914.914h-23.107c-.505 0-.914-.409-.914-.914v-.208c0-.505.409-.914.914-.914"/><path d="m335.3091 170.7363h33.107c.505 0 .914.409.914.914v.208c0 .505-.409.914-.914.914h-33.107c-.505 0-.914-.409-.914-.914v-.208c0-.505.409-.914.914-.914"/><path d="m324.3091 79.2432h33.107c.505 0 .914.409.914.914v.209c0 .505-.409.914-.914.914h-33.107c-.505 0-.914-.409-.914-.914v-.209c0-.505.409-.914.914-.914"/><path d="m318.3091 170.8223h12.107c.505 0 .914.409.914.914v.208c0 .505-.409.915-.914.915h-12.107c-.505 0-.914-.41-.914-.915v-.208c0-.505.409-.914.914-.914"/><path d="m275.3442 74.167c-.842 0-1.525-.684-1.525-1.527s.683-1.528 1.525-1.528c.843 0 1.526.685 1.526 1.528s-.683 1.527-1.526 1.527"/><path d="m262.6802 7.4795c-.115.711.366 1.387 1.073 1.506l7.303 1.26c.354.06.694-.025.967-.218.27-.194.465-.489.522-.843.116-.711-.363-1.384-1.072-1.506l-7.303-1.261c-.351-.058-.695.028-.966.221-.268.192-.464.489-.524.841"/><path d="m267.9028 3.335c.719.048 1.268.671 1.223 1.387l-.431 7.397c-.022.36-.182.671-.433.893-.249.219-.581.342-.939.317-.718-.049-1.265-.668-1.223-1.387l.431-7.397c.022-.356.185-.671.435-.891.247-.218.581-.341.937-.319"/><path d="m127.062 15.3555c0 .746-.604 1.352-1.351 1.352-.746 0-1.351-.606-1.351-1.352s.605-1.352 1.351-1.352c.747 0 1.351.606 1.351 1.352"/><path d="m337.1841 135.5469c.707-.138 1.176-.823 1.043-1.527l-1.341-7.288c-.067-.355-.263-.644-.54-.832-.274-.188-.619-.268-.971-.2-.707.137-1.172.819-1.043 1.528l1.341 7.288c.067.35.267.642.541.83.273.185.619.266.97.201"/><path d="m331.4907 132.0781c-.203-.691.191-1.422.878-1.627l7.092-2.152c.344-.103.691-.062.986.097.292.159.522.428.623.772.202.691-.19 1.418-.879 1.627l-7.091 2.152c-.341.103-.693.059-.986-.099-.29-.157-.521-.428-.623-.77"/><path d="m79.0649 113.5439c-.441 0-.799-.457-.799-1.021v-5.958c0-.564.358-1.021.799-1.021s.8.457.8 1.021v5.958c0 .564-.359 1.021-.8 1.021"/><path d="m83.0649 109.5439c0 .441-.457.8-1.021.8h-5.958c-.563 0-1.021-.359-1.021-.8s.458-.799 1.021-.799h5.958c.564 0 1.021.358 1.021.799"/><path d="m316.2017 117.2471c0 .553-.447 1-1 1-.552 0-1-.447-1-1 0-.552.448-1 1-1 .553 0 1 .448 1 1"/><path d="m277.2017 30.2471c0 .553-.447 1-1 1-.552 0-1-.447-1-1 0-.552.448-1 1-1 .553 0 1 .448 1 1"/><path d="m198.2446 16.5938c-.276 0-.5-.285-.5-.638v-3.723c0-.353.224-.639.5-.639.275 0 .499.286.499.639v3.723c0 .353-.224.638-.499.638"/><path d="m200.7446 14.0938c0 .276-.286.5-.639.5h-3.723c-.352 0-.638-.224-.638-.5 0-.275.286-.499.638-.499h3.723c.353 0 .639.224.639.499"/></g><path d="m222.8784 33.0615c-20.345.956-35.997 18.484-35.997 38.849v19.104h15.13v-19.394c0-12.091 9.121-22.646 21.182-23.424 13.219-.857 24.207 9.609 24.207 22.645 0 4.177 3.388 7.565 7.565 7.565s7.564-3.388 7.564-7.565c0-21.498-17.931-38.804-39.651-37.78" fill="#5fa0ff"/><path d="m224.7056 33.0176c-.605 0-1.216.015-1.827.044-20.345.956-35.997 18.484-35.997 38.849v19.104h15.13v-19.394c0-12.091 9.121-22.646 21.182-23.424.508-.034 1.015-.049 1.512-.049 12.534 0 22.695 10.16 22.695 22.694 0 4.177 3.388 7.565 7.565 7.565s7.564-3.388 7.564-7.565c0-20.887-16.936-37.824-37.824-37.824m0 3.531c18.907 0 34.293 15.386 34.293 34.293 0 2.227-1.807 4.033-4.033 4.033s-4.033-1.806-4.033-4.033c0-14.46-11.767-26.225-26.227-26.225-.576 0-1.152.019-1.738.053-13.731.892-24.488 12.727-24.488 26.951v15.863h-8.072v-15.573c0-18.947 14.332-34.46 32.634-35.323.561-.029 1.113-.039 1.664-.039" fill="#0053cc"/><path d="m249.9224 156.5771h-50.433c-13.927 0-25.215-11.288-25.215-25.217v-35.303c0-5.569 4.515-10.085 10.085-10.085h80.693c5.57 0 10.086 4.516 10.086 10.085v35.303c0 13.929-11.288 25.217-25.216 25.217" fill="#b0d0ff"/><path d="m176.795 114.97h95.821v-16.39h-95.821z" fill="#5fa0ff" mask="url(#c)"/><path d="m229.7495 128.8389c0-2.787-2.256-5.043-5.044-5.043-2.787 0-5.043 2.256-5.043 5.043 0 1.646.803 3.093 2.02 4.014l-2.02 11.116h10.087l-2.02-11.116c1.217-.921 2.02-2.368 2.02-4.014" fill="#fff" mask="url(#c)"/><g fill="#0053cc"><path d="m265.0522 85.9717h-80.692c-5.571 0-10.086 4.517-10.086 10.086v35.303c0 13.928 11.288 25.216 25.215 25.216h50.433c13.928 0 25.216-11.288 25.216-25.216v-35.303c0-5.569-4.516-10.086-10.086-10.086m0 3.531c3.614 0 6.555 2.941 6.555 6.555v35.303c0 11.958-9.727 21.685-21.685 21.685h-50.433c-11.958 0-21.684-9.727-21.684-21.685v-35.303c0-3.614 2.939-6.555 6.555-6.555z" mask="url(#c)"/><path d="m224.7056 123.7959c-2.787 0-5.043 2.256-5.043 5.043 0 1.645.803 3.093 2.02 4.014l-2.02 11.116h10.087l-2.02-11.116c1.217-.921 2.02-2.369 2.02-4.014 0-2.787-2.256-5.043-5.044-5.043m0 .882c2.296 0 4.162 1.866 4.162 4.161 0 1.306-.61 2.507-1.67 3.31-.265.202-.398.537-.34.862l1.832 10.076h-7.968l1.827-10.076c.064-.325-.069-.66-.334-.862-1.06-.803-1.67-2.004-1.67-3.31 0-2.295 1.866-4.161 4.161-4.161m47.911-8.446h-95.821c-.694 0-1.261-.567-1.261-1.262s.567-1.261 1.261-1.261h95.821c.694 0 1.261.566 1.261 1.261s-.567 1.262-1.261 1.262m-28.999-15.13h-66.822c-.694 0-1.261-.567-1.261-1.261s.567-1.261 1.261-1.261h66.822c.695 0 1.261.567 1.261 1.261s-.566 1.261-1.261 1.261m12.609 0h-5.043c-.695 0-1.261-.567-1.261-1.261s.566-1.261 1.261-1.261h5.043c.694 0 1.26.567 1.26 1.261s-.566 1.261-1.26 1.261m16.39 0h-8.825c-.695 0-1.262-.567-1.262-1.261s.567-1.261 1.262-1.261h8.825c.694 0 1.261.567 1.261 1.261s-.567 1.261-1.261 1.261" mask="url(#c)"/><path d="m175.6587 46.0918c2.341 7.952-2.207 16.297-10.159 18.639-7.952 2.341-16.297-2.207-18.639-10.16-2.342-7.952 2.207-16.296 10.159-18.638s16.297 2.207 18.639 10.159" mask="url(#c)"/></g><path d="m173.6343 46.6875c2.013 6.835-1.896 14.007-8.73 16.02-6.835 2.011-14.007-1.898-16.02-8.732-2.013-6.835 1.896-14.007 8.731-16.019 6.835-2.013 14.007 1.896 16.019 8.731" fill="#b0d0ff" mask="url(#c)"/><path d="m171.9097 47.1953c1.732 5.882-1.632 12.055-7.514 13.786-5.882 1.733-12.054-1.632-13.787-7.514-1.731-5.882 1.633-12.054 7.515-13.787 5.882-1.731 12.055 1.633 13.786 7.515" fill="#fff" mask="url(#c)"/><path d="m157.481 64.3721 9.686 5.088 4.311-8.69-6.58 2.86z" fill="#0053cc" mask="url(#c)"/><path d="m159.8608 51.9346-3.796-2.826-1.16 1.658 5.419 4.031 6.581-9.396-1.622-1.207z" fill="#0053cc" mask="url(#c)"/><path d="m295.9409 51.707c-1.396 6.833-8.067 11.239-14.9 9.844-6.833-1.397-11.24-8.068-9.844-14.901s8.067-11.239 14.9-9.843 11.24 8.067 9.844 14.9" fill="#0053cc" mask="url(#c)"/><path d="m294.2017 51.3515c-1.2 5.872-6.934 9.66-12.806 8.46s-9.66-6.934-8.46-12.806c1.201-5.873 6.934-9.66 12.806-8.46 5.872 1.201 9.66 6.934 8.46 12.806" fill="#b0d0ff" mask="url(#c)"/><path d="m292.7192 51.0488c-1.032 5.054-5.967 8.313-11.021 7.28-5.053-1.032-8.313-5.967-7.281-11.02 1.033-5.054 5.968-8.314 11.022-7.281 5.053 1.033 8.313 5.967 7.28 11.021" fill="#fff" mask="url(#c)"/><path d="m275.2231 58.1221 5.191 7.601 6.631-4.757-6.017-.47z" fill="#0053cc" mask="url(#c)"/><path d="m281.8979 49.8183-1.707-3.597-1.516.774 2.437 5.134 8.596-4.388-.729-1.536z" fill="#0053cc" mask="url(#c)"/></g></svg>