<svg height="173" viewBox="0 0 438 173" width="438" xmlns="http://www.w3.org/2000/svg" xmlns:xlink="http://www.w3.org/1999/xlink"><mask id="a" fill="#fff"><path d="m0 .7184h437.451v171.594h-437.451z" fill="#fff" fill-rule="evenodd"/></mask><mask id="b" fill="#fff"><path d="m0 173.282h437.451v-172.282h-437.451z" fill="#fff" fill-rule="evenodd"/></mask><g fill="none" fill-rule="evenodd" transform="translate(0 -1)"><path d="m375.936 43.3814h-44.644c-10.088 0-18.268 8.02-18.268 17.913 0 9.843 8.096 17.843 18.133 17.916l85.072.616c11.746.084 21.222 9.446 21.222 20.964 0 11.579-9.572 20.965-21.38 20.965h-33.177c-20.273 0-36.707 16.115-36.707 35.995v14.562l-244.724-.933c0-18.695-15.456-33.852-34.522-33.852h-43.456c-12.97 0-23.486-10.31-23.486-23.031 0-12.717 10.516-23.028 23.486-23.028h72.799c11.954 0 21.645-9.504 21.645-21.225 0-11.722-9.691-21.226-21.645-21.226h-34.397c-13.602 0-24.627-10.811-24.627-24.15 0-13.337 11.025-24.149 24.627-24.149h314.049c12.014 0 21.753 9.551 21.753 21.332 0 11.78-9.739 21.331-21.753 21.331" fill="#f0f5ff" mask="url(#a)" transform="translate(0 .282)"/><g fill="#0053cc"><path d="m367.2554 85.3528c-.562 0-1.018-.582-1.018-1.299v-7.584c0-.718.456-1.3 1.018-1.3s1.018.582 1.018 1.3v7.584c0 .717-.456 1.299-1.018 1.299"/><path d="m372.3472 80.262c0 .562-.583 1.017-1.3 1.017h-7.584c-.717 0-1.3-.455-1.3-1.017s.583-1.018 1.3-1.018h7.584c.717 0 1.3.456 1.3 1.018"/><path d="m117.6743 173.2816c-.842 0-1.525-.683-1.525-1.527 0-.843.683-1.528 1.525-1.528.843 0 1.526.685 1.526 1.528 0 .844-.683 1.527-1.526 1.527"/><path d="m300.6743 40.2816c-.842 0-1.525-.683-1.525-1.527 0-.843.683-1.528 1.525-1.528.843 0 1.526.685 1.526 1.528 0 .844-.683 1.527-1.526 1.527"/><path d="m109.9819 62.2122c-.425.387-.459 1.048-.077 1.473l3.935 4.406c.193.213.447.329.713.343.265.013.533-.076.744-.268.424-.387.458-1.044.077-1.472l-3.936-4.406c-.19-.212-.448-.327-.713-.341-.263-.013-.532.075-.743.265"/><path d="m115.2974 62.2122c.424.387.458 1.048.076 1.473l-3.935 4.406c-.193.213-.447.329-.713.343-.265.013-.532-.076-.744-.268-.424-.387-.458-1.044-.077-1.472l3.936-4.406c.19-.212.448-.327.713-.341.263-.013.532.075.744.265"/><path d="m45.5034 47.805h53.107c.505 0 .914.409.914.914v.208c0 .505-.409.914-.914.914h-53.107c-.505 0-.914-.409-.914-.914v-.208c0-.505.409-.914.914-.914"/><path d="m132.8003 13.9857h31.107c.505 0 .914.409.914.914v.209c0 .505-.409.914-.914.914h-31.107c-.505 0-.914-.409-.914-.914v-.209c0-.505.409-.914.914-.914"/><path d="m90.1528 170.7366h23.107c.505 0 .914.409.914.914v.208c0 .505-.409.914-.914.914h-23.107c-.505 0-.914-.409-.914-.914v-.208c0-.505.409-.914.914-.914"/><path d="m335.3091 170.7366h33.107c.505 0 .914.409.914.914v.208c0 .505-.409.914-.914.914h-33.107c-.505 0-.914-.409-.914-.914v-.208c0-.505.409-.914.914-.914"/><path d="m324.3091 79.2435h33.107c.505 0 .914.409.914.914v.208c0 .505-.409.914-.914.914h-33.107c-.505 0-.914-.409-.914-.914v-.208c0-.505.409-.914.914-.914"/><path d="m318.3091 170.8226h12.107c.505 0 .914.409.914.914v.208c0 .505-.409.914-.914.914h-12.107c-.505 0-.914-.409-.914-.914v-.208c0-.505.409-.914.914-.914"/><path d="m275.3442 74.1673c-.842 0-1.525-.684-1.525-1.528 0-.843.683-1.528 1.525-1.528.843 0 1.526.685 1.526 1.528 0 .844-.683 1.528-1.526 1.528"/><path d="m262.6802 7.4798c-.115.71.366 1.387 1.073 1.506l7.303 1.26c.354.059.694-.025.967-.219.27-.193.465-.488.522-.843.116-.71-.363-1.383-1.072-1.506l-7.303-1.26c-.351-.059-.695.028-.966.221-.268.192-.464.488-.524.841"/><path d="m267.9028 3.3343c.719.049 1.268.672 1.223 1.387l-.431 7.398c-.022.36-.182.671-.433.892-.249.22-.581.342-.939.318-.718-.049-1.265-.668-1.223-1.387l.431-7.398c.022-.356.185-.671.435-.891.247-.217.581-.341.937-.319"/><path d="m127.062 15.3558c0 .746-.604 1.351-1.351 1.351-.746 0-1.351-.605-1.351-1.351 0-.747.605-1.352 1.351-1.352.747 0 1.351.605 1.351 1.352"/><path d="m193.3892 49.9476c0 .721-.584 1.305-1.305 1.305-.72 0-1.304-.584-1.304-1.305s.584-1.305 1.304-1.305c.721 0 1.305.584 1.305 1.305"/><path d="m337.1841 135.5462c.707-.137 1.176-.822 1.043-1.527l-1.341-7.288c-.067-.354-.263-.643-.54-.832-.274-.187-.619-.267-.971-.199-.707.137-1.172.819-1.043 1.527l1.341 7.288c.067.35.267.642.541.83.273.186.619.267.97.201"/><path d="m331.4907 132.0784c-.203-.691.191-1.422.878-1.627l7.092-2.152c.344-.104.691-.062.986.097.292.159.522.428.623.772.202.691-.19 1.418-.879 1.627l-7.091 2.152c-.341.102-.693.059-.986-.099-.29-.158-.521-.428-.623-.77"/><path d="m79.0649 113.5443c-.441 0-.799-.458-.799-1.021v-5.958c0-.564.358-1.021.799-1.021s.8.457.8 1.021v5.958c0 .563-.359 1.021-.8 1.021"/><path d="m83.0649 109.5443c0 .441-.457.799-1.021.799h-5.958c-.563 0-1.021-.358-1.021-.799s.458-.8 1.021-.8h5.958c.564 0 1.021.359 1.021.8"/><path d="m316.2017 117.2474c0 .552-.447 1-1 1-.552 0-1-.448-1-1 0-.553.448-1 1-1 .553 0 1 .447 1 1"/><path d="m277.2017 30.2474c0 .552-.447 1-1 1-.552 0-1-.448-1-1 0-.553.448-1 1-1 .553 0 1 .447 1 1"/><path d="m198.2446 16.5941c-.276 0-.5-.286-.5-.638v-3.724c0-.352.224-.638.5-.638.275 0 .499.286.499.638v3.724c0 .352-.224.638-.499.638"/><path d="m200.7446 14.0941c0 .275-.286.499-.639.499h-3.723c-.352 0-.638-.224-.638-.499s.286-.5.638-.5h3.723c.353 0 .639.225.639.5"/></g><path d="m293.1411 157.803-56.72-39.445 56.801-41.994c1.273 1.086 1.998 2.684 1.976487 4.36l-.001487 72.678c.02 1.704-.737 3.323-2.056 4.401" fill="#b0d0ff"/><path d="m293.1411 157.803c-1.033.927-2.376 1.433-3.765 1.419l-122.136.020001c-1.396.000999-2.744-.510001-3.786-1.439001l9.215-6.417 47.526-33.049 6.395 4.71c1.019.755 2.408.763 3.435.021l6.396-4.71 47.464 33.028z" fill="#5fa0ff"/><path d="m220.1948 118.3372-56.74 39.466c-1.298-1.084-2.044-2.69-2.035081-4.381v-72.719c-.004919-1.671.714081-3.261 1.973081-4.359z" fill="#b0d0ff"/><path d="m293.2222 76.3636-56.801 41.994-6.396 4.71c-1.027.742-2.416.734-3.435-.02l-6.395-4.71-56.802-41.994c1.063-.936 2.429-1.456 3.846-1.459l122.137.019c1.421-.015 2.793.507 3.846 1.46" fill="#b0d0ff"/><path d="m242.5913 124.5277 47.464 33.028 1.664 1.154.015-.005z" fill="#fff"/><path d="m166.33 77.78h123.965v-4.44h-123.965z" fill="#fff" mask="url(#b)"/><g fill="#0053cc"><path d="m163.1538 156.1321 54.397-37.838-54.584-40.34v2.522l-.009.035v72.905c.002.176.028.313.05.403zm75.898-37.829 54.418 37.835.132-2.319c.025-.097.051-.236.051-.4l-.001-72.704c.001-.146-.021-.296-.065-.446l-.554-1.866zm-72.721 39.386 123.965.009-53.858-37.463-5.499 4.059c-.77.577-1.679.879-2.632.879-.955 0-1.863-.303-2.628-.875l-5.504-4.061zm.896 3.093c-1.778-.007-3.494-.666-4.825-1.853-.051-.047-.099-.085-.141-.115-.068-.061-.139-.119-.213-.174l-.049-.038c-1.352-1.348-2.138-3.243-2.136004-5.18v-72.719c.008004-2.25 1.082004-4.414 2.872004-5.783 1.287-1.018 2.878-1.575 4.497-1.581l11.681.007c.547 0 1.058.293 1.335.765.281.481.281 1.08 0 1.56-.277.472-.788.766-1.335.766l-12.801-.001 62.2 45.968 62.188-45.968-88.34-.004c-.819-.047-1.456-.72-1.455-1.543 0-.824.638-1.497 1.458-1.542l87.216-.002c1.531.018 3.057.551 4.281 1.497l.123.096.141.065c.173.079.331.193.459.333.059.116.147.253.278.384 1.312 1.336 2.055 3.119 2.083 5.01l.002 72.692c0 4.058-3.303 7.359-7.361 7.361z" mask="url(#b)"/><path d="m190.4819 76.4163c-.405 0-.793-.148-1.094-.42-.273-.3-.427-.684-.437-1.09.005-.122.018-.243.039-.359.01-.057.024-.102.044-.142l.052-.1.034-.108c.015-.052.037-.101.063-.148l.238-.303c.288-.267.659-.412 1.053-.412.204 0 .404.039.593.118.582.242.956.806.952 1.437-.004.193-.047.396-.128.589-.083.206-.186.375-.318.522-.3.269-.686.416-1.091.416" mask="url(#b)"/><path d="m103.5806 118.6077c-.547 0-1.059-.293-1.335-.765-.281-.481-.281-1.079 0-1.56.276-.472.788-.765 1.336-.765h45.293c.813.015 1.494.708 1.494 1.545s-.681 1.53-1.517 1.545z" mask="url(#b)"/><path d="m124.1958 89.8157c-.413 0-.801-.16-1.093-.452-.443-.444-.574-1.105-.334-1.685.24-.578.8-.952 1.427-.952h24.678c.814.015 1.495.707 1.495 1.544 0 .834-.676 1.525-1.509 1.545z" mask="url(#b)"/><path d="m124.1958 147.3978c-.852 0-1.545-.692-1.545-1.544s.693-1.545 1.545-1.545h24.678c.813.015 1.495.708 1.495 1.546 0 .833-.676 1.523-1.509 1.543z" mask="url(#b)"/><path d="m111.8569 102.1556c-.413 0-.801-.161-1.093-.453-.443-.443-.574-1.105-.335-1.685.24-.577.801-.952 1.428-.952h12.338c.813.015 1.495.708 1.496 1.546-.001.836-.682 1.528-1.519 1.543z" mask="url(#b)"/><path d="m111.8052 135.0599c-.546 0-1.057-.293-1.332-.764-.282-.482-.282-1.08-.001-1.561.276-.472.787-.765 1.335-.765l12.389.001c.813.014 1.494.707 1.495 1.545 0 .833-.676 1.523-1.509 1.544z" mask="url(#b)"/><path d="m196.1255 87.7601c-.548-.001-1.06-.294-1.335-.766-.281-.481-.281-1.079 0-1.559.275-.473.787-.766 1.335-.766l20.614.002c.814.014 1.495.707 1.495 1.544 0 .836-.681 1.529-1.519 1.544z" mask="url(#b)"/><path d="m229.0269 87.7601c-.546 0-1.056-.293-1.331-.765-.282-.481-.282-1.08-.001-1.561.276-.471.788-.765 1.335-.765l4.162.002c.814.014 1.494.707 1.495 1.544 0 .836-.681 1.529-1.517 1.544z" mask="url(#b)"/></g><path d="m253.4956 148.4583c-3.341-13.947 5.258-27.962 19.205-31.303 1.958-.468 3.963-.709 5.976-.714h.054c14.331.003 25.947 11.623 25.944001 25.956-.004001 14.332-11.624001 25.947-25.956001 25.944001-11.78-.003001-22.079-7.941001-25.085-19.330001-.047-.183-.093-.368-.138-.553" fill="#b0d0ff" mask="url(#b)"/><path d="m260.2095 146.8431c-2.451-10.235 3.858-20.521 14.095-22.972 1.436-.343 2.907-.52 4.384-.524h.041c10.517.003 19.042 8.53 19.04 19.049-.003 10.517-8.532 19.041-19.049 19.039-8.646-.002-16.203-5.827-18.409-14.186-.036-.134-.069-.269-.102-.406" fill="#fffffe" mask="url(#b)"/><path d="m278.6763 117.429c-1.929.005-3.862.236-5.746.687-6.488 1.554-11.983 5.542-15.473 11.23-3.49 5.687-4.555 12.393-3.001 18.882.038.162.08.326.121.489l.013.049c2.888 10.943 12.809 18.584 24.128 18.586 6.671 0 12.937-2.595 17.652-7.306 4.716-4.714 7.314-10.981 7.316-17.649.001-6.667-2.594-12.937-7.307-17.653-4.714-4.715-10.982-7.314-17.649-7.315zm.041 51.899c-12.215-.003-22.922-8.253-26.039-20.065-.05-.194-.099-.386-.145-.577-1.676-7-.526-14.236 3.24-20.374 3.764-6.137 9.695-10.441 16.697-12.117 2.031-.487 4.118-.737 6.203-.743h.058c7.195.002 13.959 2.806 19.046 7.895 5.086 5.091 7.886 11.856 7.884001 19.05-.002001 7.195-2.804001 13.959-7.893001 19.046-5.089 5.085-11.852 7.885-19.043 7.885z" fill="#0053cc" mask="url(#b)"/><path d="m278.6763 117.429c-1.929.005-3.862.236-5.746.687-6.488 1.554-11.983 5.542-15.473 11.23-3.49 5.687-4.555 12.393-3.001 18.882.038.162.08.326.121.489l.013.049c2.888 10.943 12.809 18.584 24.128 18.586 6.671 0 12.937-2.595 17.652-7.306 4.716-4.714 7.314-10.981 7.316-17.649.001-6.667-2.594-12.937-7.307-17.653-4.714-4.715-10.982-7.314-17.649-7.315zm.041 51.899c-12.215-.003-22.922-8.253-26.039-20.065-.05-.194-.099-.386-.145-.577-1.676-7-.526-14.236 3.24-20.374 3.764-6.137 9.695-10.441 16.697-12.117 2.031-.487 4.118-.737 6.203-.743h.058c7.195.002 13.959 2.806 19.046 7.895 5.086 5.091 7.886 11.856 7.884001 19.05-.002001 7.195-2.804001 13.959-7.893001 19.046-5.089 5.085-11.852 7.885-19.043 7.885z" mask="url(#b)" stroke="#0053cc"/><path d="m273.8979 154.0462c-1.811-.025-3.51-.743-4.794-2.027-1.309-1.307-2.028-3.046-2.028-4.895s.719-3.587 2.027-4.895l2.976-2.961c.137-.138.32-.213.514-.213.196 0 .378.076.516.215.138.137.213.321.213.515-.001.195-.077.377-.215.515l-2.975 2.961c-1.032 1.032-1.599 2.403-1.598 3.863 0 1.459.568 2.832 1.6 3.864 1.033 1.033 2.405 1.601 3.865 1.601 1.461-.001 2.833-.569 3.865-1.602l2.957-2.971c.138-.139.321-.215.516-.215.194 0 .376.075.515.213.284.282.285.745.002 1.029l-2.959 2.974c-1.308 1.308-3.047 2.029-4.895 2.029z" fill="#0053cc" mask="url(#b)"/><path d="m273.8979 154.0462c-1.811-.025-3.51-.743-4.794-2.027-1.309-1.307-2.028-3.046-2.028-4.895s.719-3.587 2.027-4.895l2.976-2.961c.137-.138.32-.213.514-.213.196 0 .378.076.516.215.138.137.213.321.213.515-.001.195-.077.377-.215.515l-2.975 2.961c-1.032 1.032-1.599 2.403-1.598 3.863 0 1.459.568 2.832 1.6 3.864 1.033 1.033 2.405 1.601 3.865 1.601 1.461-.001 2.833-.569 3.865-1.602l2.957-2.971c.138-.139.321-.215.516-.215.194 0 .376.075.515.213.284.282.285.745.002 1.029l-2.959 2.974c-1.308 1.308-3.047 2.029-4.895 2.029z" mask="url(#b)" stroke="#0053cc"/><path d="m284.8706 145.7269c-.196 0-.379-.076-.517-.215-.137-.139-.212-.321-.212-.516s.077-.377.214-.514l2.975-2.961c1.031-1.031 1.598-2.403 1.598-3.864-.001-1.461-.569-2.833-1.6-3.864-1.032-1.032-2.404-1.6-3.864-1.6s-2.832.568-3.865 1.6l-2.959 2.973c-.138.138-.322.214-.517.214-.194 0-.376-.075-.514-.212-.137-.138-.214-.32-.215-.515 0-.194.076-.378.213-.515l2.96-2.974c1.308-1.308 3.047-2.028 4.897-2.028 1.848 0 3.587.72 4.894 2.026 1.308 1.308 2.029 3.046 2.029 4.896 0 1.848-.72 3.587-2.027 4.894l-2.976 2.962c-.138.137-.321.213-.514.213" fill="#0053cc" mask="url(#b)"/><path d="m284.8706 145.7269c-.196 0-.379-.076-.517-.215-.137-.139-.212-.321-.212-.516s.077-.377.214-.514l2.975-2.961c1.031-1.031 1.598-2.403 1.598-3.864-.001-1.461-.569-2.833-1.6-3.864-1.032-1.032-2.404-1.6-3.864-1.6s-2.832.568-3.865 1.6l-2.959 2.973c-.138.138-.322.214-.517.214-.194 0-.376-.075-.514-.212-.137-.138-.214-.32-.215-.515 0-.194.076-.378.213-.515l2.96-2.974c1.308-1.308 3.047-2.028 4.897-2.028 1.848 0 3.587.72 4.894 2.026 1.308 1.308 2.029 3.046 2.029 4.896 0 1.848-.72 3.587-2.027 4.894l-2.976 2.962c-.138.137-.321.213-.514.213z" mask="url(#b)" stroke="#0053cc"/><path d="m274.2388 147.6126c-.194 0-.377-.075-.515-.213-.284-.284-.284-.747 0-1.031l8.986-8.985c.136-.137.32-.213.514-.213.195 0 .378.076.516.213.283.285.283.747-.001 1.032l-8.984 8.984c-.138.138-.321.213-.516.213" fill="#0053cc" mask="url(#b)"/><path d="m274.2388 147.6126c-.194 0-.377-.075-.515-.213-.284-.284-.284-.747 0-1.031l8.986-8.985c.136-.137.32-.213.514-.213.195 0 .378.076.516.213.283.285.283.747-.001 1.032l-8.984 8.984c-.138.138-.321.213-.516.213z" mask="url(#b)" stroke="#0053cc"/><path d="m178.1069 47.6995c-1.166 0-2.29-.427-3.166-1.201l-2.025-1.799c-.159-.14-.252-.333-.266-.543-.013-.212.058-.416.198-.575.142-.16.336-.254.548-.266h.007c.237 0 .421.071.564.198l2.025 1.799c.586.517 1.337.802 2.114.802.067 0 .136-.002.203-.007.854-.052 1.637-.433 2.204-1.075.567-.641.85-1.465.797-2.319s-.435-1.637-1.077-2.203l-2.029-1.787c-.16-.139-.255-.334-.269-.546-.013-.208.057-.412.194-.571.153-.173.37-.27.598-.27.192 0 .378.07.523.197l2.032 1.787c.96.849 1.531 2.019 1.61 3.295.064 1.32-.36 2.526-1.19 3.467-.847.958-2.017 1.529-3.295 1.608-.1.006-.2.009-.3.009" fill="#b0d0ff" mask="url(#b)"/><path d="m178.7271 37.014c-.321 0-.626.138-.838.378-.196.224-.294.51-.275.806.017.297.151.571.376.768l2.031 1.787c.575.508.919 1.212.967 1.981.048.767-.207 1.509-.717 2.085s-1.213.92-1.981.967c-.062.004-.124.006-.184.006-.699 0-1.374-.257-1.9-.721l-2.024-1.798c-.205-.182-.468-.281-.74-.281h-.02l-.047.001c-.297.018-.57.151-.768.374s-.298.51-.279.809c.018.296.151.567.373.765l2.025 1.799c.937.828 2.137 1.283 3.381 1.283.106 0 .213-.003.32-.01 1.362-.084 2.612-.694 3.516-1.717.886-1.003 1.339-2.291 1.275-3.626l-.004-.074c-.084-1.363-.694-2.611-1.717-3.517l-2.034-1.788c-.204-.178-.465-.277-.736-.277m0 .646c.11 0 .221.038.31.116l2.032 1.787c.894.791 1.428 1.882 1.501 3.072l.005.066c.054 1.167-.34 2.29-1.116 3.167-.791.895-1.881 1.427-3.072 1.5-.094.006-.187.009-.28.009-1.09 0-2.129-.392-2.952-1.12l-2.026-1.799c-.093-.083-.149-.197-.157-.322-.008-.126.034-.247.117-.341.084-.094.199-.15.325-.157.008-.001.018-.001.028-.001.115 0 .224.041.311.118l2.025 1.799c.649.574 1.469.883 2.328.883.074 0 .148-.002.224-.007.939-.058 1.8-.478 2.424-1.184s.936-1.612.877-2.552c-.057-.941-.478-1.802-1.183-2.426l-2.032-1.786c-.094-.083-.151-.198-.159-.324-.008-.124.034-.246.116-.34.093-.105.223-.158.354-.158" fill="#0053cc" mask="url(#b)"/><path d="m171.0259 42.7659c-.193 0-.379-.07-.523-.198l-2.032-1.788c-.96-.848-1.531-2.018-1.61-3.295-.078-1.277.345-2.508 1.192-3.466.846-.958 2.016-1.529 3.292-1.609.102-.006.202-.009.301-.009 1.165 0 2.29.426 3.167 1.2l2.025 1.801c.159.139.252.333.266.543.013.214-.057.418-.2.576-.139.157-.332.251-.545.265h-.007c-.239 0-.423-.072-.566-.199l-2.025-1.799c-.584-.515-1.335-.8-2.113-.8-.067 0-.136.002-.204.007-.855.051-1.637.433-2.204 1.074-.567.642-.85 1.466-.796 2.317.052.855.435 1.638 1.076 2.204l2.03 1.788c.16.142.254.335.268.547.013.211-.057.414-.197.572-.139.16-.333.254-.545.268z" fill="#b0d0ff" mask="url(#b)"/><path d="m171.647 32.0784c-.106 0-.214.003-.32.01-1.364.084-2.612.693-3.516 1.717-.904 1.023-1.355 2.336-1.271 3.7.084 1.362.693 2.611 1.716 3.515l2.034 1.79c.204.179.464.278.736.278h.02l.051-.002c.298-.019.57-.153.767-.376.196-.224.294-.51.275-.806-.017-.298-.151-.571-.375-.768l-2.032-1.788c-.575-.509-.919-1.213-.967-1.981-.047-.768.208-1.509.717-2.085s1.213-.919 1.981-.967c.062-.004.123-.006.184-.006.7 0 1.375.256 1.9.721l2.025 1.798c.204.181.467.281.739.281h.02l.046-.002c.298-.018.572-.15.769-.373.198-.223.298-.51.279-.808-.018-.298-.151-.57-.374-.767l-2.023-1.799c-.938-.827-2.137-1.282-3.381-1.282m0 .6459981c1.09-.0009981 2.129.3910019 2.952 1.1190019l2.025 1.799c.094.083.15.198.158.323.008.126-.034.247-.118.341-.083.093-.199.149-.325.157-.008.001-.018.001-.028.001-.115 0-.225-.041-.311-.118l-2.025-1.799c-.648-.573-1.468-.882-2.328-.882-.074 0-.148.002-.224.007-.94.057-1.801.478-2.424 1.182-.623.706-.936 1.613-.877 2.552.057.941.478 1.802 1.184 2.426l2.031 1.788c.095.083.151.198.159.324.007.125-.034.245-.117.339-.083.095-.197.151-.323.159-.01 0-.02.001-.03.001-.114 0-.224-.041-.31-.117l-2.032-1.789c-.894-.79-1.428-1.881-1.501-3.072-.073-1.192.321-2.339 1.111-3.233s1.881-1.427 3.072-1.501c.094-.006.187-.0070019.281-.0070019" fill="#0053cc" mask="url(#b)"/><path d="m177.9478 43.5579c-.193 0-.38-.07-.524-.199l-6.143-5.429c-.158-.141-.253-.334-.267-.545-.012-.211.057-.414.198-.574.151-.171.368-.268.594-.268.194 0 .38.071.526.2l6.142 5.427c.159.143.252.336.266.547.013.212-.058.417-.199.574-.148.169-.364.267-.593.267" fill="#b0d0ff" mask="url(#b)"/><path d="m171.8062 36.22c-.319 0-.624.138-.836.376-.197.224-.296.511-.277.808.018.297.151.57.374.767l6.142 5.43c.204.18.467.279.74.279.319 0 .624-.137.835-.376.197-.223.295-.511.278-.807-.019-.297-.152-.57-.374-.767l-6.143-5.43c-.204-.18-.467-.28-.739-.28m0 .646c.111 0 .222.039.312.118l6.142 5.428c.094.084.15.199.157.325.008.125-.033.246-.117.339-.093.106-.222.159-.351.159-.112 0-.223-.038-.312-.118l-6.143-5.429c-.093-.083-.15-.198-.158-.323-.008-.126.034-.247.117-.341.093-.105.223-.158.353-.158" fill="#0053cc" mask="url(#b)"/><path d="m167.1665 47.4114 2.829-2.647" mask="url(#b)" stroke="#0053cc" stroke-linecap="round" stroke-width=".645"/><path d="m165.7729 44.4212 3.278-.666" mask="url(#b)" stroke="#0053cc" stroke-linecap="round" stroke-width=".645"/><path d="m170.0581 48.9993.881-3.228" mask="url(#b)" stroke="#0053cc" stroke-linecap="round" stroke-width=".645"/><path d="m180.5454 33.2249-1.847 2.17" mask="url(#b)" stroke="#0053cc" stroke-linecap="round" stroke-width=".475"/><path d="m178.3003 32.305-.375 2.432" mask="url(#b)" stroke="#0053cc" stroke-linecap="round" stroke-width=".475"/><path d="m181.813 35.2943-2.341.76" mask="url(#b)" stroke="#0053cc" stroke-linecap="round" stroke-width=".475"/><path d="m219.8071 54.1839c-2.651 0-4.808-2.156-4.808-4.808v-4.875c0-2.651 2.157-4.807 4.808-4.807h71.712c2.651 0 4.808 2.156 4.808 4.807v4.875c0 2.652-2.157 4.808-4.808 4.808z" fill="#fff" mask="url(#b)"/><path d="m291.519 39.0413h-71.712c-3.011 0-5.46 2.449-5.46 5.46v4.875c0 3.011 2.449 5.46 5.46 5.46h71.712c3.011 0 5.46-2.449 5.46-5.46v-4.875c0-3.011-2.449-5.46-5.46-5.46m0 1.305c2.295 0 4.155 1.86 4.155 4.155v4.875c0 2.295-1.86 4.155-4.155 4.155h-71.712c-2.295 0-4.155-1.86-4.155-4.155v-4.875c0-2.295 1.86-4.155 4.155-4.155z" fill="#0053cc" mask="url(#b)"/><path d="m221.0239 43.5433v1.877c.16-.187.317-.333.47-.441s.321-.189.508-.244c.184-.053.384-.08.597-.08.321 0 .607.068.855.204.249.135.443.332.587.593.088.152.148.32.18.507.031.188.046.402.046.647v2.422c0 .254-.057.446-.174.576-.115.129-.269.194-.461.194-.417 0-.626-.256-.626-.77v-2.135c0-.406-.059-.716-.18-.934-.12-.218-.349-.326-.686-.326-.225 0-.428.063-.609.192-.181.127-.316.303-.405.527-.069.187-.102.522-.102 1.004v1.672c0 .251-.058.442-.17.573-.113.131-.269.197-.47.197-.417 0-.626-.256-.626-.77v-5.485c0-.256.055-.448.165-.577.11-.128.264-.193.461-.193.201 0 .357.065.47.195.112.13.17.321.17.575" fill="#0053cc" mask="url(#b)"/><path d="m225.5874 44.7669h.139v-.76c0-.204.006-.364.016-.48.012-.116.041-.216.091-.298.049-.087.121-.157.212-.212.094-.054.196-.08.312-.08.16 0 .305.059.435.18.087.081.142.177.164.294.024.116.035.28.035.494v.862h.464c.178 0 .315.042.409.127s.141.193.141.326c0 .171-.066.289-.201.357-.134.069-.326.102-.577.102h-.236v2.327c0 .198.006.349.021.456.013.106.051.193.111.259.061.067.158.101.295.101.073 0 .175-.015.301-.04.126-.027.225-.039.297-.039.101 0 .193.04.275.122.081.082.122.183.122.303 0 .203-.111.361-.333.469-.222.107-.543.161-.959.161-.395 0-.696-.065-.899-.198-.204-.134-.337-.317-.401-.552-.063-.234-.095-.548-.095-.94v-2.429h-.167c-.183 0-.322-.044-.417-.13-.096-.086-.144-.195-.144-.329 0-.133.051-.241.152-.326.099-.085.246-.127.437-.127" fill="#0053cc" mask="url(#b)"/><path d="m228.9458 44.7669h.14v-.76c0-.204.006-.364.016-.48.011-.116.04-.216.09-.298.05-.087.121-.157.213-.212.093-.054.196-.08.311-.08.161 0 .306.059.436.18.086.081.142.177.164.294.024.116.034.28.034.494v.862h.464c.179 0 .316.042.409.127.095.085.142.193.142.326 0 .171-.066.289-.201.357-.134.069-.326.102-.577.102h-.237v2.327c0 .198.007.349.021.456.014.106.051.193.112.259.06.067.158.101.294.101.074 0 .175-.015.301-.04.127-.027.225-.039.297-.039.102 0 .194.04.275.122.082.082.123.183.123.303 0 .203-.111.361-.333.469-.223.107-.543.161-.96.161-.394 0-.695-.065-.899-.198-.204-.134-.336-.317-.401-.552-.063-.234-.094-.548-.094-.94v-2.429h-.167c-.183 0-.322-.044-.417-.13-.096-.086-.145-.195-.145-.329 0-.133.052-.241.152-.326s.247-.127.437-.127" fill="#0053cc" mask="url(#b)"/><path d="m235.8833 47.2044c0-.334-.051-.621-.153-.86-.102-.24-.242-.423-.423-.552-.181-.128-.381-.192-.6-.192-.349 0-.643.137-.884.413-.239.275-.359.678-.359 1.213 0 .504.12.895.357 1.175.239.28.533.42.886.42.21 0 .404-.061.583-.183.18-.123.322-.305.431-.55.108-.243.162-.539.162-.884m-2.479-1.84v.153c.239-.293.486-.509.743-.646.256-.138.546-.207.87-.207.389 0 .748.101 1.075.301.327.201.586.494.776.881.19.385.286.843.286 1.372 0 .388-.055.747-.165 1.071-.11.327-.261.601-.453.821-.19.221-.418.391-.678.51-.26.118-.54.178-.841.178-.362 0-.664-.073-.91-.218s-.48-.357-.703-.64v1.901c0 .555-.202.835-.606.835-.238 0-.396-.074-.473-.216-.078-.144-.116-.353-.116-.628v-5.459c0-.241.053-.421.158-.539.105-.12.248-.179.431-.179.179 0 .325.062.438.183.113.122.168.298.168.526" fill="#0053cc" mask="url(#b)"/><path d="m239.0063 49.7982c-.19 0-.356-.062-.495-.186-.14-.122-.209-.295-.209-.518 0-.189.066-.351.2-.487.132-.135.295-.204.49-.204.196 0 .361.068.498.203.138.133.207.296.207.488 0 .219-.069.391-.207.517-.137.125-.299.187-.484.187m-.704-4.453c0-.219.068-.389.206-.51.138-.12.304-.18.498-.18.188 0 .351.062.487.183.135.122.204.291.204.507 0 .173-.075.333-.223.477-.148.146-.309.218-.482.218-.188 0-.35-.069-.487-.209-.136-.138-.203-.301-.203-.486" fill="#0053cc" mask="url(#b)"/><path d="m242.9312 43.7152-1.297 5.342c-.043.176-.082.314-.113.417-.033.101-.083.181-.15.239-.066.056-.163.085-.289.085-.314 0-.472-.136-.472-.407 0-.072.03-.249.092-.533l1.292-5.343c.07-.284.134-.479.196-.583.062-.105.181-.158.361-.158.154 0 .274.037.355.112.082.073.122.176.122.306 0 .095-.032.269-.097.523" fill="#0053cc" mask="url(#b)"/><path d="m245.5962 43.7152-1.298 5.342c-.043.176-.081.314-.113.417-.033.101-.083.181-.149.239-.066.056-.163.085-.29.085-.314 0-.472-.136-.472-.407 0-.072.031-.249.093-.533l1.292-5.343c.069-.284.134-.479.195-.583.062-.105.182-.158.362-.158.154 0 .273.037.355.112.081.073.122.176.122.306 0 .095-.033.269-.097.523" fill="#0053cc" mask="url(#b)"/><path d="m188.7622 56.6253h24.933c.659 0 1.193.534 1.193 1.192v.273c0 .658-.534 1.192-1.193 1.192h-24.933c-.658 0-1.192-.534-1.192-1.192v-.273c0-.658.534-1.192 1.192-1.192" fill="#0053cc" mask="url(#b)"/></g></svg>